<svg xmlns="http://www.w3.org/2000/svg" viewBox="0 0 240 40" width="240" height="40" fill="none" preserveAspectRatio="none">
  <defs>
    <linearGradient id="paperBase" x1="0" y1="0" x2="0" y2="40" gradientUnits="userSpaceOnUse">
      <stop offset="0" stop-color="#c89046"/>
      <stop offset="0.16" stop-color="#e8c887"/>
      <stop offset="0.48" stop-color="#fff0bf"/>
      <stop offset="0.82" stop-color="#e2bd77"/>
      <stop offset="1" stop-color="#b97834"/>
    </linearGradient>

    <linearGradient id="centerLight" x1="0" y1="0" x2="240" y2="0" gradientUnits="userSpaceOnUse">
      <stop offset="0" stop-color="#f1d79a" stop-opacity="0.38"/>
      <stop offset="0.45" stop-color="#fff6d3" stop-opacity="0.75"/>
      <stop offset="1" stop-color="#e0b96e" stop-opacity="0.35"/>
    </linearGradient>

    <filter id="paperGrain" x="-5%" y="-30%" width="110%" height="160%">
      <feTurbulence type="fractalNoise" baseFrequency="0.55" numOctaves="3" seed="12" result="noise"/>
      <feColorMatrix in="noise" type="matrix" values="
        0 0 0 0 0.50
        0 0 0 0 0.34
        0 0 0 0 0.15
        0 0 0 0.10 0" result="grain"/>
      <feBlend in="SourceGraphic" in2="grain" mode="multiply"/>
    </filter>
  </defs>

  <g filter="url(#paperGrain)">
    <path d="M0 8
             C20 6.8 36 8.7 58 7.4
             C84 5.8 108 8.2 135 7.2
             C165 6.1 192 8.4 240 7.2
             L240 32.5
             C210 33.3 188 31.8 160 33.1
             C130 34.6 107 32.4 78 33.2
             C48 34.1 23 31.8 0 33
             Z"
          fill="url(#paperBase)"/>

    <path d="M0 10
             C44 9 86 10.4 126 9.5
             C166 8.7 204 10.3 240 9.2
             L240 30.2
             C198 30.9 158 29.8 121 30.8
             C78 31.9 42 30.2 0 31.3
             Z"
          fill="url(#centerLight)" opacity="0.9"/>
  </g>

  <path d="M0 8.4C55 6.5 110 8.5 160 7.2C194 6.3 218 8.1 240 7.3" stroke="#a8682d" stroke-opacity="0.22" stroke-width="1"/>
  <path d="M0 32.6C58 34.3 101 31.6 150 33.1C188 34.2 215 32.1 240 32.7" stroke="#8b5528" stroke-opacity="0.18" stroke-width="1"/>
</svg>