<svg xmlns="http://www.w3.org/2000/svg" viewBox="0 0 64 40" width="64" height="40" fill="none">
  <defs>
    <linearGradient id="wood" x1="0" y1="0" x2="64" y2="40" gradientUnits="userSpaceOnUse">
      <stop offset="0" stop-color="#7b4c24"/>
      <stop offset="0.35" stop-color="#b98245"/>
      <stop offset="0.7" stop-color="#8b5528"/>
      <stop offset="1" stop-color="#d0a066"/>
    </linearGradient>

    <linearGradient id="paper" x1="44" y1="8" x2="64" y2="32" gradientUnits="userSpaceOnUse">
      <stop offset="0" stop-color="#e2b977"/>
      <stop offset="0.45" stop-color="#f8e5b6"/>
      <stop offset="1" stop-color="#c88e45"/>
    </linearGradient>

    <radialGradient id="highlight" cx="0" cy="0" r="1" gradientUnits="userSpaceOnUse" gradientTransform="translate(25 13) rotate(55) scale(28 15)">
      <stop offset="0" stop-color="#f4c889" stop-opacity="0.8"/>
      <stop offset="1" stop-color="#f4c889" stop-opacity="0"/>
    </radialGradient>

    <filter id="softGrain" x="-20%" y="-20%" width="140%" height="140%">
      <feTurbulence type="fractalNoise" baseFrequency="0.9" numOctaves="2" seed="7" result="noise"/>
      <feColorMatrix in="noise" type="matrix" values="
        0 0 0 0 0.45
        0 0 0 0 0.29
        0 0 0 0 0.12
        0 0 0 0.12 0" result="grain"/>
      <feBlend in="SourceGraphic" in2="grain" mode="multiply"/>
    </filter>
  </defs>

  <ellipse cx="35" cy="34" rx="23" ry="3.2" fill="#4d2f18" opacity="0.14"/>

  <g filter="url(#softGrain)">
    <path d="M4 20C4 14.7 9.2 11.2 15.2 11.2H18.8C22.5 11.2 25.5 15.2 25.5 20C25.5 24.8 22.5 28.8 18.8 28.8H15.2C9.2 28.8 4 25.3 4 20Z" fill="url(#wood)"/>
    <rect x="18" y="10.5" width="11" height="19" rx="5.5" fill="#9b642f"/>
    <rect x="25" y="7.8" width="8.2" height="24.4" rx="4.1" fill="url(#wood)"/>
    <rect x="31" y="5.8" width="9" height="28.4" rx="4.5" fill="#b47a3a"/>
    <rect x="38" y="7.4" width="7.2" height="25.2" rx="3.6" fill="#8b5528"/>
    <rect x="43" y="8.5" width="18" height="23" rx="5.5" fill="url(#paper)"/>
  </g>

  <rect x="44.8" y="10.2" width="13.8" height="19.6" rx="4.8" fill="#fff3cc" opacity="0.28"/>
  <path d="M13 13.5C18 11.8 23 12 29 13.2" stroke="url(#highlight)" stroke-width="2.2" stroke-linecap="round" opacity="0.5"/>
</svg>