<svg xmlns="http://www.w3.org/2000/svg" viewBox="0 0 40 240" width="40" height="240" fill="none" preserveAspectRatio="none">
  <defs>
    <linearGradient id="paperBase" x1="0" y1="0" x2="40" y2="0" gradientUnits="userSpaceOnUse">
      <stop offset="0" stop-color="#b97834"/>
      <stop offset="0.18" stop-color="#e2bd77"/>
      <stop offset="0.52" stop-color="#fff0bf"/>
      <stop offset="0.84" stop-color="#e8c887"/>
      <stop offset="1" stop-color="#c89046"/>
    </linearGradient>

    <linearGradient id="centerLight" x1="0" y1="0" x2="0" y2="240" gradientUnits="userSpaceOnUse">
      <stop offset="0" stop-color="#f1d79a" stop-opacity="0.38"/>
      <stop offset="0.45" stop-color="#fff6d3" stop-opacity="0.75"/>
      <stop offset="1" stop-color="#e0b96e" stop-opacity="0.35"/>
    </linearGradient>

    <filter id="paperGrain" x="-30%" y="-5%" width="160%" height="110%">
      <feTurbulence type="fractalNoise" baseFrequency="0.55" numOctaves="3" seed="14" result="noise"/>
      <feColorMatrix in="noise" type="matrix" values="
        0 0 0 0 0.50
        0 0 0 0 0.34
        0 0 0 0 0.15
        0 0 0 0.10 0" result="grain"/>
      <feBlend in="SourceGraphic" in2="grain" mode="multiply"/>
    </filter>
  </defs>

  <g filter="url(#paperGrain)">
    <path d="M8 0
             C6.8 20 8.7 36 7.4 58
             C5.8 84 8.2 108 7.2 135
             C6.1 165 8.4 192 7.2 240
             L32.5 240
             C33.3 210 31.8 188 33.1 160
             C34.6 130 32.4 107 33.2 78
             C34.1 48 31.8 23 33 0
             Z"
          fill="url(#paperBase)"/>

    <path d="M10 0
             C9 44 10.4 86 9.5 126
             C8.7 166 10.3 204 9.2 240
             L30.2 240
             C30.9 198 29.8 158 30.8 121
             C31.9 78 30.2 42 31.3 0
             Z"
          fill="url(#centerLight)" opacity="0.9"/>
  </g>

  <path d="M8.4 0C6.5 55 8.5 110 7.2 160C6.3 194 8.1 218 7.3 240" stroke="#a8682d" stroke-opacity="0.22" stroke-width="1"/>
  <path d="M32.6 0C34.3 58 31.6 101 33.1 150C34.2 188 32.1 215 32.7 240" stroke="#8b5528" stroke-opacity="0.18" stroke-width="1"/>
</svg>